<svg xmlns="http://www.w3.org/2000/svg" viewBox="0 0 16 16" shape-rendering="crispEdges">
  <rect width="16" height="16" fill="#0e1620"/>
  <rect x="6" y="1" width="4" height="1" fill="#d6dee7"/>
  <rect x="5" y="2" width="1" height="1" fill="#7a5e1c"/>
  <rect x="6" y="2" width="4" height="1" fill="#f0b429"/>
  <rect x="10" y="2" width="1" height="1" fill="#7a5e1c"/>
  <rect x="4" y="3" width="2" height="1" fill="#7a5e1c"/>
  <rect x="6" y="3" width="4" height="1" fill="#f0b429"/>
  <rect x="10" y="3" width="2" height="1" fill="#7a5e1c"/>
  <rect x="5" y="4" width="1" height="1" fill="#7a5e1c"/>
  <rect x="6" y="4" width="4" height="1" fill="#f0b429"/>
  <rect x="10" y="4" width="1" height="1" fill="#7a5e1c"/>
  <rect x="4" y="5" width="8" height="1" fill="#d6dee7"/>
  <rect x="6" y="6" width="2" height="1" fill="#d6dee7"/>
  <rect x="8" y="6" width="2" height="1" fill="#8c9baa"/>
  <rect x="6" y="7" width="2" height="1" fill="#d6dee7"/>
  <rect x="8" y="7" width="2" height="1" fill="#8c9baa"/>
  <rect x="6" y="8" width="4" height="1" fill="#f0b429"/>
  <rect x="6" y="9" width="2" height="1" fill="#d6dee7"/>
  <rect x="8" y="9" width="2" height="1" fill="#8c9baa"/>
  <rect x="5" y="10" width="3" height="1" fill="#d6dee7"/>
  <rect x="8" y="10" width="3" height="1" fill="#8c9baa"/>
  <rect x="5" y="11" width="3" height="1" fill="#d6dee7"/>
  <rect x="8" y="11" width="3" height="1" fill="#8c9baa"/>
  <rect x="4" y="12" width="4" height="1" fill="#d6dee7"/>
  <rect x="8" y="12" width="4" height="1" fill="#8c9baa"/>
  <rect x="4" y="13" width="4" height="1" fill="#d6dee7"/>
  <rect x="8" y="13" width="4" height="1" fill="#8c9baa"/>
  <rect x="3" y="14" width="10" height="1" fill="#263447"/>
  <rect x="0" y="15" width="16" height="1" fill="#1b2735"/>
</svg>
